<svg width="265" height="83" viewBox="0 0 265 83" fill="none" xmlns="http://www.w3.org/2000/svg">
<path d="M9.63574 42.0303C9.79297 44.8379 10.4556 47.1177 11.6235 48.8696C13.8472 52.1489 17.7666 53.7886 23.3818 53.7886C25.8975 53.7886 28.1885 53.4292 30.2549 52.7104C34.2529 51.3179 36.252 48.8247 36.252 45.231C36.252 42.5356 35.4097 40.6152 33.7251 39.4697C32.0181 38.3467 29.3452 37.3696 25.7065 36.5386L19.002 35.0225C14.6221 34.0342 11.5225 32.9448 9.70312 31.7544C6.55859 29.688 4.98633 26.5996 4.98633 22.4893C4.98633 18.042 6.5249 14.3921 9.60205 11.5396C12.6792 8.68701 17.0366 7.26074 22.6743 7.26074C27.8628 7.26074 32.2651 8.51855 35.8813 11.0342C39.52 13.5273 41.3394 17.5254 41.3394 23.0283H35.0391C34.7021 20.3779 33.9834 18.3452 32.8828 16.9302C30.8389 14.3472 27.3687 13.0557 22.4722 13.0557C18.519 13.0557 15.6777 13.8867 13.9482 15.5488C12.2188 17.2109 11.354 19.1426 11.354 21.3438C11.354 23.7695 12.3647 25.5439 14.3862 26.667C15.7114 27.3857 18.71 28.2842 23.3818 29.3623L30.3223 30.9458C33.6689 31.7095 36.252 32.7539 38.0713 34.0791C41.2158 36.3926 42.7881 39.7505 42.7881 44.1528C42.7881 49.6333 40.7891 53.5527 36.791 55.9111C32.8154 58.2695 28.1885 59.4487 22.9102 59.4487C16.7559 59.4487 11.938 57.8765 8.45654 54.7319C4.9751 51.6099 3.26807 47.376 3.33545 42.0303H9.63574ZM72.3333 7.15967C78.5999 7.15967 83.4627 8.81055 86.9217 12.1123C90.3807 15.4141 92.3011 19.165 92.6829 23.3652H86.1468C85.4056 20.1758 83.9231 17.6489 81.6995 15.7847C79.4983 13.9204 76.3987 12.9883 72.4007 12.9883C67.5267 12.9883 63.5848 14.7065 60.575 18.1431C57.5877 21.5571 56.094 26.8018 56.094 33.877C56.094 39.6719 57.4417 44.3774 60.137 47.9937C62.8548 51.5874 66.8978 53.3843 72.2659 53.3843C77.2073 53.3843 80.9695 51.4863 83.5525 47.6904C84.9227 45.6914 85.9446 43.0635 86.6185 39.8066H93.1546C92.5706 45.0176 90.639 49.3862 87.3597 52.9126C83.429 57.1577 78.1282 59.2803 71.4573 59.2803C65.7073 59.2803 60.8782 57.5396 56.97 54.0581C51.8265 49.4536 49.2547 42.3447 49.2547 32.7314C49.2547 25.4316 51.1863 19.4458 55.0496 14.7739C59.2273 9.69775 64.9886 7.15967 72.3333 7.15967ZM124.553 31.1816C127.697 31.1816 130.179 30.5527 131.999 29.2949C133.84 28.0371 134.761 25.7686 134.761 22.4893C134.761 18.9629 133.481 16.5596 130.921 15.2793C129.55 14.6055 127.72 14.2686 125.429 14.2686H109.055V31.1816H124.553ZM102.35 8.50732H125.26C129.034 8.50732 132.145 9.05762 134.593 10.1582C139.242 12.2695 141.567 16.1665 141.567 21.8491C141.567 24.814 140.949 27.2397 139.714 29.1265C138.501 31.0132 136.794 32.5293 134.593 33.6748C136.525 34.4609 137.973 35.4941 138.939 36.7744C139.927 38.0547 140.478 40.1323 140.59 43.0073L140.826 49.6445C140.893 51.5312 141.05 52.9351 141.297 53.856C141.702 55.4282 142.421 56.439 143.454 56.8882V58H135.233C135.008 57.5732 134.829 57.0229 134.694 56.3491C134.559 55.6753 134.447 54.3726 134.357 52.4409L133.953 44.1865C133.796 40.9521 132.594 38.7847 130.348 37.6841C129.067 37.0776 127.057 36.7744 124.317 36.7744H109.055V58H102.35V8.50732Z" fill="white"/>
<path d="M170.203 29.4297C173.033 29.4297 175.234 29.0366 176.806 28.2505C179.277 27.0151 180.512 24.7915 180.512 21.5796C180.512 18.3452 179.198 16.1665 176.57 15.0435C175.088 14.4146 172.887 14.1001 169.967 14.1001H158.006V29.4297H170.203ZM172.46 52.2725C176.57 52.2725 179.501 51.082 181.253 48.7012C182.354 47.1963 182.904 45.377 182.904 43.2432C182.904 39.6494 181.298 37.2012 178.086 35.8984C176.379 35.2021 174.122 34.854 171.314 34.854H158.006V52.2725H172.46ZM151.436 8.50732H172.696C178.491 8.50732 182.612 10.2368 185.06 13.6958C186.498 15.7397 187.217 18.0981 187.217 20.771C187.217 23.8931 186.329 26.4536 184.555 28.4526C183.634 29.5083 182.309 30.4741 180.579 31.3501C183.118 32.3159 185.016 33.4053 186.273 34.6182C188.497 36.7744 189.609 39.7505 189.609 43.5464C189.609 46.7358 188.609 49.6221 186.61 52.2051C183.623 56.0684 178.872 58 172.359 58H151.436V8.50732ZM212.045 21.1079C214.606 21.1079 217.088 21.7144 219.491 22.9272C221.894 24.1177 223.725 25.6675 224.983 27.5767C226.196 29.396 227.004 31.5186 227.408 33.9443C227.768 35.6064 227.947 38.2568 227.947 41.8955H201.5C201.612 45.5566 202.477 48.499 204.094 50.7227C205.711 52.9238 208.216 54.0244 211.607 54.0244C214.774 54.0244 217.301 52.98 219.188 50.8911C220.266 49.6782 221.029 48.2744 221.479 46.6797H227.442C227.285 48.0049 226.757 49.4873 225.859 51.127C224.983 52.7441 223.994 54.0693 222.894 55.1025C221.052 56.8994 218.772 58.1123 216.054 58.7412C214.594 59.1006 212.944 59.2803 211.102 59.2803C206.61 59.2803 202.802 57.6519 199.68 54.395C196.558 51.1157 194.997 46.5337 194.997 40.6489C194.997 34.854 196.57 30.1484 199.714 26.5322C202.859 22.916 206.969 21.1079 212.045 21.1079ZM221.715 37.0776C221.467 34.4497 220.895 32.3496 219.996 30.7773C218.334 27.8574 215.56 26.3975 211.675 26.3975C208.889 26.3975 206.553 27.4082 204.667 29.4297C202.78 31.4287 201.78 33.978 201.668 37.0776H221.715ZM236.84 11.8428H242.972V21.9165H248.733V26.8691H242.972V50.4194C242.972 51.6772 243.398 52.5195 244.252 52.9463C244.724 53.1934 245.51 53.3169 246.61 53.3169C246.902 53.3169 247.217 53.3169 247.554 53.3169C247.891 53.2944 248.284 53.2607 248.733 53.2158V58C248.037 58.2021 247.307 58.3481 246.543 58.438C245.802 58.5278 244.993 58.5728 244.117 58.5728C241.287 58.5728 239.367 57.854 238.356 56.4165C237.345 54.9565 236.84 53.0698 236.84 50.7563V26.8691H231.955V21.9165H236.84V11.8428Z" fill="#006EB2"/>
<path d="M77.2871 70.958H78.873L81.7578 75.7842L84.6426 70.958H86.2354L82.4414 76.9531V81H81.0811V76.9531L77.2871 70.958ZM89.0604 80.207C89.8761 80.207 90.4344 79.8994 90.7352 79.2842C91.0405 78.6644 91.1932 77.9762 91.1932 77.2197C91.1932 76.5361 91.0838 75.9801 90.865 75.5518C90.5187 74.8773 89.9217 74.54 89.074 74.54C88.3221 74.54 87.7752 74.8271 87.4334 75.4014C87.0916 75.9756 86.9207 76.6683 86.9207 77.4795C86.9207 78.2588 87.0916 78.9082 87.4334 79.4277C87.7752 79.9473 88.3175 80.207 89.0604 80.207ZM89.1082 73.4668C90.0516 73.4668 90.8491 73.7812 91.5008 74.4102C92.1525 75.0391 92.4783 75.9642 92.4783 77.1855C92.4783 78.3659 92.1912 79.3411 91.617 80.1113C91.0428 80.8815 90.1518 81.2666 88.9441 81.2666C87.937 81.2666 87.1372 80.9271 86.5447 80.248C85.9523 79.5645 85.6561 78.6484 85.6561 77.5C85.6561 76.2695 85.9682 75.2897 86.5926 74.5605C87.2169 73.8314 88.0555 73.4668 89.1082 73.4668ZM95.3785 73.6787V78.5391C95.3785 78.9128 95.4378 79.2181 95.5562 79.4551C95.775 79.8926 96.1829 80.1113 96.7799 80.1113C97.6367 80.1113 98.22 79.7285 98.5299 78.9629C98.6985 78.5527 98.7828 77.9899 98.7828 77.2744V73.6787H100.013V81H98.8512L98.8648 79.9199C98.7053 80.1979 98.5071 80.4326 98.2701 80.624C97.8007 81.0068 97.2311 81.1982 96.5611 81.1982C95.5175 81.1982 94.8066 80.8496 94.4283 80.1523C94.2232 79.7786 94.1207 79.2796 94.1207 78.6553V73.6787H95.3785ZM102.175 73.6787H103.344V74.9434C103.44 74.6973 103.675 74.3988 104.048 74.0479C104.422 73.6924 104.853 73.5146 105.34 73.5146C105.363 73.5146 105.402 73.5169 105.456 73.5215C105.511 73.526 105.605 73.5352 105.737 73.5488V74.8477C105.664 74.834 105.595 74.8249 105.532 74.8203C105.472 74.8158 105.406 74.8135 105.333 74.8135C104.714 74.8135 104.237 75.014 103.905 75.415C103.572 75.8115 103.406 76.2695 103.406 76.7891V81H102.175V73.6787ZM115.037 75.2031C115.611 75.2031 116.058 75.1234 116.377 74.9639C116.878 74.7132 117.129 74.262 117.129 73.6104C117.129 72.9541 116.862 72.512 116.329 72.2842C116.028 72.1566 115.582 72.0928 114.989 72.0928H112.562V75.2031H115.037ZM115.495 79.8379C116.329 79.8379 116.924 79.5964 117.279 79.1133C117.503 78.8079 117.614 78.4388 117.614 78.0059C117.614 77.2767 117.288 76.7799 116.637 76.5156C116.29 76.3743 115.832 76.3037 115.263 76.3037H112.562V79.8379H115.495ZM111.229 70.958H115.543C116.719 70.958 117.555 71.3089 118.052 72.0107C118.343 72.4255 118.489 72.904 118.489 73.4463C118.489 74.0798 118.309 74.5993 117.949 75.0049C117.762 75.2191 117.493 75.415 117.143 75.5928C117.658 75.7887 118.043 76.0098 118.298 76.2559C118.749 76.6934 118.975 77.2972 118.975 78.0674C118.975 78.7145 118.772 79.3001 118.366 79.8242C117.76 80.6081 116.796 81 115.475 81H111.229V70.958ZM123.686 73.5146C124.206 73.5146 124.709 73.6377 125.197 73.8838C125.685 74.1253 126.056 74.4398 126.311 74.8271C126.557 75.1963 126.721 75.627 126.804 76.1191C126.876 76.4564 126.913 76.9941 126.913 77.7324H121.547C121.569 78.4753 121.745 79.0723 122.073 79.5234C122.401 79.9701 122.909 80.1934 123.597 80.1934C124.24 80.1934 124.753 79.9814 125.136 79.5576C125.354 79.3115 125.509 79.0267 125.6 78.7031H126.81C126.778 78.972 126.671 79.2728 126.489 79.6055C126.311 79.9336 126.111 80.2025 125.888 80.4121C125.514 80.7767 125.051 81.0228 124.5 81.1504C124.204 81.2233 123.869 81.2598 123.495 81.2598C122.583 81.2598 121.811 80.9294 121.178 80.2686C120.544 79.6032 120.227 78.6735 120.227 77.4795C120.227 76.3037 120.546 75.349 121.184 74.6152C121.822 73.8815 122.656 73.5146 123.686 73.5146ZM125.648 76.7549C125.598 76.2217 125.482 75.7956 125.3 75.4766C124.962 74.8841 124.4 74.5879 123.611 74.5879C123.046 74.5879 122.572 74.793 122.189 75.2031C121.806 75.6087 121.604 76.126 121.581 76.7549H125.648ZM129.362 78.7031C129.398 79.1133 129.501 79.4277 129.67 79.6465C129.979 80.043 130.517 80.2412 131.283 80.2412C131.739 80.2412 132.14 80.1432 132.486 79.9473C132.832 79.7467 133.005 79.4391 133.005 79.0244C133.005 78.71 132.866 78.4707 132.588 78.3066C132.411 78.2064 132.06 78.0902 131.536 77.958L130.558 77.7119C129.934 77.557 129.474 77.3838 129.177 77.1924C128.649 76.8597 128.384 76.3994 128.384 75.8115C128.384 75.1188 128.633 74.5583 129.129 74.1299C129.631 73.7015 130.303 73.4873 131.146 73.4873C132.249 73.4873 133.044 73.8109 133.532 74.458C133.837 74.8682 133.985 75.3102 133.976 75.7842H132.814C132.791 75.5062 132.693 75.2533 132.52 75.0254C132.238 74.7018 131.748 74.54 131.05 74.54C130.586 74.54 130.232 74.6289 129.991 74.8066C129.754 74.9844 129.635 75.2191 129.635 75.5107C129.635 75.8298 129.793 76.085 130.107 76.2764C130.289 76.3903 130.558 76.4906 130.914 76.5771L131.727 76.7754C132.611 76.9896 133.204 77.1969 133.504 77.3975C133.983 77.7119 134.222 78.2064 134.222 78.8809C134.222 79.5326 133.974 80.0954 133.477 80.5693C132.985 81.0433 132.233 81.2803 131.221 81.2803C130.132 81.2803 129.36 81.0342 128.904 80.542C128.453 80.0452 128.211 79.4323 128.179 78.7031H129.362ZM136.077 71.6348H137.321V73.6787H138.49V74.6836H137.321V79.4619C137.321 79.7171 137.407 79.888 137.58 79.9746C137.676 80.0247 137.836 80.0498 138.059 80.0498C138.118 80.0498 138.182 80.0498 138.25 80.0498C138.319 80.0452 138.399 80.0384 138.49 80.0293V81C138.348 81.041 138.2 81.0706 138.045 81.0889C137.895 81.1071 137.731 81.1162 137.553 81.1162C136.979 81.1162 136.589 80.9704 136.384 80.6787C136.179 80.3825 136.077 79.9997 136.077 79.5303V74.6836H135.085V73.6787H136.077V71.6348ZM148.419 70.6846C149.69 70.6846 150.677 71.0195 151.379 71.6895C152.081 72.3594 152.47 73.1204 152.548 73.9727H151.222C151.071 73.3255 150.771 72.8128 150.319 72.4346C149.873 72.0563 149.244 71.8672 148.433 71.8672C147.444 71.8672 146.644 72.2158 146.033 72.9131C145.427 73.6058 145.124 74.6699 145.124 76.1055C145.124 77.2812 145.397 78.236 145.944 78.9697C146.496 79.6989 147.316 80.0635 148.405 80.0635C149.408 80.0635 150.171 79.6784 150.695 78.9082C150.973 78.5026 151.181 77.9694 151.317 77.3086H152.644C152.525 78.3659 152.133 79.2523 151.468 79.9678C150.67 80.8291 149.595 81.2598 148.241 81.2598C147.075 81.2598 146.095 80.9066 145.302 80.2002C144.258 79.266 143.736 77.8236 143.736 75.873C143.736 74.3919 144.128 73.1774 144.912 72.2295C145.76 71.1995 146.929 70.6846 148.419 70.6846ZM154.341 70.9238H155.571V74.6699C155.863 74.3008 156.125 74.041 156.357 73.8906C156.754 73.6309 157.248 73.501 157.841 73.501C158.902 73.501 159.623 73.8724 160.001 74.6152C160.206 75.0208 160.308 75.5837 160.308 76.3037V81H159.044V76.3857C159.044 75.848 158.975 75.4538 158.839 75.2031C158.615 74.8021 158.196 74.6016 157.581 74.6016C157.07 74.6016 156.608 74.777 156.193 75.1279C155.778 75.4788 155.571 76.1419 155.571 77.1172V81H154.341V70.9238ZM165.239 80.207C166.055 80.207 166.613 79.8994 166.914 79.2842C167.219 78.6644 167.372 77.9762 167.372 77.2197C167.372 76.5361 167.262 75.9801 167.044 75.5518C166.697 74.8773 166.1 74.54 165.253 74.54C164.501 74.54 163.954 74.8271 163.612 75.4014C163.27 75.9756 163.099 76.6683 163.099 77.4795C163.099 78.2588 163.27 78.9082 163.612 79.4277C163.954 79.9473 164.496 80.207 165.239 80.207ZM165.287 73.4668C166.23 73.4668 167.028 73.7812 167.679 74.4102C168.331 75.0391 168.657 75.9642 168.657 77.1855C168.657 78.3659 168.37 79.3411 167.796 80.1113C167.221 80.8815 166.33 81.2666 165.123 81.2666C164.115 81.2666 163.316 80.9271 162.723 80.248C162.131 79.5645 161.835 78.6484 161.835 77.5C161.835 76.2695 162.147 75.2897 162.771 74.5605C163.395 73.8314 164.234 73.4668 165.287 73.4668ZM170.327 73.7129H171.578V81H170.327V73.7129ZM170.327 70.958H171.578V72.3525H170.327V70.958ZM176.467 73.4668C177.292 73.4668 177.962 73.6673 178.477 74.0684C178.996 74.4694 179.308 75.1598 179.413 76.1396H178.217C178.144 75.6885 177.978 75.3148 177.718 75.0186C177.458 74.7178 177.041 74.5674 176.467 74.5674C175.683 74.5674 175.123 74.9502 174.785 75.7158C174.567 76.2126 174.457 76.8255 174.457 77.5547C174.457 78.2884 174.612 78.9059 174.922 79.4072C175.232 79.9085 175.72 80.1592 176.385 80.1592C176.895 80.1592 177.299 80.0042 177.595 79.6943C177.896 79.3799 178.103 78.9515 178.217 78.4092H179.413C179.277 79.3799 178.935 80.0908 178.388 80.542C177.841 80.9886 177.141 81.2119 176.289 81.2119C175.332 81.2119 174.569 80.8633 173.999 80.166C173.43 79.4642 173.145 78.5892 173.145 77.541C173.145 76.2559 173.457 75.2555 174.081 74.54C174.706 73.8245 175.501 73.4668 176.467 73.4668ZM183.893 73.5146C184.412 73.5146 184.916 73.6377 185.403 73.8838C185.891 74.1253 186.262 74.4398 186.518 74.8271C186.764 75.1963 186.928 75.627 187.01 76.1191C187.083 76.4564 187.119 76.9941 187.119 77.7324H181.753C181.776 78.4753 181.951 79.0723 182.279 79.5234C182.607 79.9701 183.116 80.1934 183.804 80.1934C184.446 80.1934 184.959 79.9814 185.342 79.5576C185.561 79.3115 185.715 79.0267 185.807 78.7031H187.017C186.985 78.972 186.878 79.2728 186.695 79.6055C186.518 79.9336 186.317 80.2025 186.094 80.4121C185.72 80.7767 185.257 81.0228 184.706 81.1504C184.41 81.2233 184.075 81.2598 183.701 81.2598C182.79 81.2598 182.017 80.9294 181.384 80.2686C180.75 79.6032 180.434 78.6735 180.434 77.4795C180.434 76.3037 180.753 75.349 181.391 74.6152C182.029 73.8815 182.863 73.5146 183.893 73.5146ZM185.854 76.7549C185.804 76.2217 185.688 75.7956 185.506 75.4766C185.169 74.8841 184.606 74.5879 183.817 74.5879C183.252 74.5879 182.778 74.793 182.396 75.2031C182.013 75.6087 181.81 76.126 181.787 76.7549H185.854Z" fill="white"/>
</svg>
